<svg width="280" height="410" viewBox="0 0 280 410" fill="none" xmlns="http://www.w3.org/2000/svg">
<path d="M112.6 193.4H85.5V220.5H112.6V193.4Z" fill="#F3A93A"/>
<path d="M85.4 220.6H58.3V247.7H85.4V220.6Z" fill="#F3A93A"/>
<path d="M112.6 220.6H85.5V247.7H112.6V220.6Z" fill="#F3A93A"/>
<path d="M112.6 247.7H85.5V274.8H112.6V247.7Z" fill="#F3A93A"/>
<path d="M31.2 166.3H4.09998V193.4H31.2V166.3Z" fill="#009FA5"/>
<path d="M58.3 166.3H31.2V193.4H58.3V166.3Z" fill="#009FA5"/>
<path d="M85.4 166.3H58.3V193.4H85.4V166.3Z" fill="#009FA5"/>
<path d="M58.3 193.4H31.2V220.5H58.3V193.4Z" fill="#009FA5"/>
<path d="M58.3 112.1H31.2V139.2H58.3V112.1Z" fill="#008432"/>
<path d="M85.4 112.1H58.3V139.2H85.4V112.1Z" fill="#008432"/>
<path d="M85.4 139.2H58.3V166.3H85.4V139.2Z" fill="#008432"/>
<path d="M58.3 139.2H31.2V166.3H58.3V139.2Z" fill="#008432"/>
<path d="M221 112.1H193.9V139.2H221V112.1Z" fill="#008432"/>
<path d="M248.2 112.1H221.1V139.2H248.2V112.1Z" fill="#008432"/>
<path d="M248.2 139.2H221.1V166.3H248.2V139.2Z" fill="#008432"/>
<path d="M221 139.2H193.9V166.3H221V139.2Z" fill="#008432"/>
<path d="M139.7 193.4H112.6V220.5H139.7V193.4Z" fill="#DF2520"/>
<path d="M166.8 193.4H139.7V220.5H166.8V193.4Z" fill="#DF2520"/>
<path d="M166.8 220.6H139.7V247.7H166.8V220.6Z" fill="#DF2520"/>
<path d="M139.7 220.6H112.6V247.7H139.7V220.6Z" fill="#DF2520"/>
<path d="M139.7 30.7H112.6V57.8H139.7V30.7Z" fill="#DF2520"/>
<path d="M166.8 30.7H139.7V57.8H166.8V30.7Z" fill="#DF2520"/>
<path d="M166.8 57.8H139.7V84.9H166.8V57.8Z" fill="#DF2520"/>
<path d="M139.7 57.8H112.6V84.9H139.7V57.8Z" fill="#DF2520"/>
<path d="M31.2 3.60001H4.09998V30.7H31.2V3.60001Z" fill="#6C7520"/>
<path d="M58.3 3.60001H31.2V30.7H58.3V3.60001Z" fill="#6C7520"/>
<path d="M85.4 3.60001H58.3V30.7H85.4V3.60001Z" fill="#6C7520"/>
<path d="M112.6 3.60001H85.5V30.7H112.6V3.60001Z" fill="#F3A93A"/>
<path d="M85.4 30.7H58.3V57.8H85.4V30.7Z" fill="#F3A93A"/>
<path d="M112.6 30.7H85.5V57.8H112.6V30.7Z" fill="#F3A93A"/>
<path d="M112.6 57.8H85.5V84.9H112.6V57.8Z" fill="#F3A93A"/>
<path d="M58.3 30.7H31.2V57.8H58.3V30.7Z" fill="#6C7520"/>
<path d="M31.2 30.7H4.09998V57.8H31.2V30.7Z" fill="#6C7520"/>
<path d="M31.2 57.8H4.09998V84.9H31.2V57.8Z" fill="#6C7520"/>
<path d="M58.3 57.8H31.2V84.9H58.3V57.8Z" fill="#7FB31F"/>
<path d="M31.2 85H4.09998V112.1H31.2V85Z" fill="#7FB31F"/>
<path d="M58.3 85H31.2V112.1H58.3V85Z" fill="#7FB31F"/>
<path d="M85.4 85H58.3V112.1H85.4V85Z" fill="#7FB31F"/>
<path d="M275.3 3.60001H248.2V30.7H275.3V3.60001Z" fill="#A96F3F"/>
<path d="M248.2 3.60001H221.1V30.7H248.2V3.60001Z" fill="#A96F3F"/>
<path d="M221.1 3.60001H194V30.7H221.1V3.60001Z" fill="#A96F3F"/>
<path d="M193.9 3.60001H166.8V30.7H193.9V3.60001Z" fill="#E8746A"/>
<path d="M221.1 30.7H194V57.8H221.1V30.7Z" fill="#E8746A"/>
<path d="M193.9 30.7H166.8V57.8H193.9V30.7Z" fill="#E8746A"/>
<path d="M193.9 57.8H166.8V84.9H193.9V57.8Z" fill="#E8746A"/>
<path d="M248.2 30.7H221.1V57.8H248.2V30.7Z" fill="#A96F3F"/>
<path d="M275.3 30.7H248.2V57.8H275.3V30.7Z" fill="#A96F3F"/>
<path d="M275.3 57.8H248.2V84.9H275.3V57.8Z" fill="#A96F3F"/>
<path d="M248.2 57.8H221.1V84.9H248.2V57.8Z" fill="#7FB31F"/>
<path d="M275.3 85H248.2V112.1H275.3V85Z" fill="#7FB31F"/>
<path d="M248.2 85H221.1V112.1H248.2V85Z" fill="#7FB31F"/>
<path d="M221.1 85H194V112.1H221.1V85Z" fill="#7FB31F"/>
<path d="M31.2 193.4H4.09998V220.5H31.2V193.4Z" fill="#008432"/>
<path d="M31.2 220.6H4.09998V247.7H31.2V220.6Z" fill="#008432"/>
<path d="M58.3 220.6H31.2V247.7H58.3V220.6Z" fill="#008432"/>
<path d="M31.2 247.7H4.09998V274.8H31.2V247.7Z" fill="#008432"/>
<path d="M58.3 247.7H31.2V274.8H58.3V247.7Z" fill="#008432"/>
<path d="M85.4 247.7H58.3V274.8H85.4V247.7Z" fill="#008432"/>
<path d="M193.9 193.4H166.8V220.5H193.9V193.4Z" fill="#E8746A"/>
<path d="M221.1 220.6H194V247.7H221.1V220.6Z" fill="#E8746A"/>
<path d="M193.9 220.6H166.8V247.7H193.9V220.6Z" fill="#E8746A"/>
<path d="M193.9 247.7H166.8V274.8H193.9V247.7Z" fill="#E8746A"/>
<path d="M275.3 166.3H248.2V193.4H275.3V166.3Z" fill="#009FA5"/>
<path d="M248.2 166.3H221.1V193.4H248.2V166.3Z" fill="#009FA5"/>
<path d="M221.1 166.3H194V193.4H221.1V166.3Z" fill="#009FA5"/>
<path d="M248.2 193.4H221.1V220.5H248.2V193.4Z" fill="#009FA5"/>
<path d="M275.3 193.4H248.2V220.5H275.3V193.4Z" fill="#007499"/>
<path d="M275.3 220.6H248.2V247.7H275.3V220.6Z" fill="#007499"/>
<path d="M248.2 220.6H221.1V247.7H248.2V220.6Z" fill="#007499"/>
<path d="M275.3 247.7H248.2V274.8H275.3V247.7Z" fill="#007499"/>
<path d="M248.2 247.7H221.1V274.8H248.2V247.7Z" fill="#007499"/>
<path d="M221.1 247.7H194V274.8H221.1V247.7Z" fill="#007499"/>
<path d="M139.7 112.1H112.6V139.2H139.7V112.1Z" fill="#002352"/>
<path d="M166.8 112.1H139.7V139.2H166.8V112.1Z" fill="#002352"/>
<path d="M166.8 139.2H139.7V166.3H166.8V139.2Z" fill="#002352"/>
<path d="M139.7 139.2H112.6V166.3H139.7V139.2Z" fill="#002352"/>
<path d="M44.1 321.9C53 321.9 59.6 326.9 59.6 331.8C59.6 334.8 57.3 336.4 54.7 336.4C49.7 336.4 51.5 330.2 43.9 330.2C39.8 330.2 34.9 333 34.9 342.6C34.9 349.2 38 353.5 43.8 353.5C51.2 353.5 49.6 346.7 55.2 346.7C57.5 346.6 59.5 348.3 59.6 350.6V350.7C59.6 355.3 54.4 361.7 43.5 361.7C30.5 361.7 24.3 353.7 24.3 342.6C24.2 330.4 31.1 321.9 44.1 321.9Z" fill="#002352"/>
<path d="M99.9 350.5C99.9 354.9 101 355.9 101 357.6C101 360 98.8 361.7 96.2 361.7C91.6 361.7 90.1 358.8 90 355.5C85.9 360.1 81.1 361.7 75.5 361.7C69.5 361.7 63.5 357.6 63.5 350.9C63.5 342.1 70.2 339.7 78.3 338.7L84.8 338C87.3 337.7 89.4 337.1 89.4 334.1C89.4 331.1 86.3 329.7 82.7 329.7C74.9 329.7 74.7 335.5 70.4 335.5C68.1 335.7 66.1 333.9 65.9 331.6V331.5C65.9 327.3 71.9 321.9 82.7 321.9C92.8 321.9 99.9 325.2 99.9 332.8V350.5ZM89.3 342.9C88.1 344 86 344.4 84.7 344.6L80.9 345.2C76.5 345.8 74.1 347.2 74.1 350.4C74.1 352.8 76.4 354.8 80 354.8C85.8 354.8 89.4 351 89.4 347.1L89.3 342.9Z" fill="#002352"/>
<path d="M107.9 327.2C107.9 324.4 109.1 321.9 113.2 321.9C117.3 321.9 118.5 324.4 118.5 327.2V364.5C118.5 372.1 115.6 375.7 107.7 375.7C103.6 375.7 101.9 374.2 101.9 371.1C101.9 368.4 103 367.4 105.2 367.4H106.4C107.4 367.4 107.9 366.5 107.9 365.5V327.2ZM113.2 307.3C116.2 307.3 118.7 309.8 118.7 312.8C118.7 315.8 116.2 318.3 113.2 318.3C110.2 318.3 107.7 315.8 107.7 312.8C107.7 309.8 110.1 307.3 113.2 307.3Z" fill="#002352"/>
<path d="M160.2 350.5C160.2 354.9 161.3 355.9 161.3 357.6C161.3 360 159 361.7 156.5 361.7C151.9 361.7 150.4 358.8 150.3 355.5C146.2 360.1 141.4 361.7 135.8 361.7C129.8 361.7 123.8 357.6 123.8 350.9C123.8 342.1 130.5 339.7 138.6 338.7L145.1 338C147.6 337.7 149.7 337.1 149.7 334.1C149.7 331.1 146.6 329.7 143 329.7C135.2 329.7 135 335.5 130.7 335.5C128.4 335.7 126.4 333.9 126.2 331.6V331.5C126.2 327.3 132.1 321.9 143 321.9C153.2 321.9 160.2 325.2 160.2 332.8V350.5ZM149.7 342.9C148.5 344 146.4 344.4 145.1 344.6L141.3 345.2C136.9 345.8 134.5 347.2 134.5 350.4C134.5 352.8 136.8 354.8 140.4 354.8C146.2 354.8 149.8 351 149.8 347.1V342.9H149.7Z" fill="#002352"/>
<path d="M172.2 304.8H179V359.6H172.2V304.8Z" fill="#707074"/>
<path d="M206.6 359.6L206.1 354.9H205.9C203.2 358.5 199 360.5 194.5 360.4C186.9 360.4 183.1 355.1 183.1 349.7C183.1 340.7 191.1 335.7 205.6 335.8V335C205.6 331.9 204.7 326.4 197.1 326.4C193.7 326.4 190.3 327.4 187.4 329.2L185.9 324.7C189.6 322.5 193.9 321.3 198.2 321.4C209.6 321.4 212.4 329.2 212.4 336.7V350.7C212.4 353.7 212.6 356.7 213 359.7L206.6 359.6ZM205.6 340.5C198.2 340.4 189.8 341.7 189.8 348.9C189.8 353.3 192.7 355.4 196.2 355.4C200.2 355.5 203.9 353 205.2 349.1C205.4 348.4 205.6 347.7 205.6 346.9V340.5Z" fill="#707074"/>
<path d="M219.6 359.6C219.7 357.1 219.9 353.3 219.9 350V304.9H226.6V328.4H226.7C229.1 324.2 233.4 321.5 239.4 321.5C248.7 321.5 255.2 329.2 255.1 340.6C255.1 354 246.7 360.6 238.4 360.6C233 360.6 228.7 358.5 225.9 353.6H225.7L225.4 359.8L219.6 359.6ZM226.6 344.6C226.6 345.4 226.7 346.3 226.9 347.1C228.1 351.8 232.3 355.1 237.1 355.1C244.2 355.1 248.4 349.3 248.4 340.7C248.4 333.2 244.5 326.8 237.3 326.8C232.4 326.9 228.1 330.3 227 335.1C226.8 336 226.6 336.9 226.6 337.9V344.6Z" fill="#707074"/>
<path d="M2.70001 403.5V385H5.10001V401.3H14.2V403.5H2.70001Z" fill="#002352"/>
<path d="M23.5 401.8C22.7 402.5 21.9 403 21.1 403.3C20.3 403.6 19.5 403.7 18.6 403.7C17.1 403.7 16 403.3 15.2 402.6C14.4 401.9 14 401 14 399.8C14 399.1 14.1 398.5 14.4 398C14.7 397.5 15.1 397 15.6 396.7C16.1 396.4 16.6 396.1 17.2 396C17.6 395.9 18.3 395.8 19.2 395.7C21 395.5 22.4 395.2 23.2 394.9C23.2 394.6 23.2 394.4 23.2 394.3C23.2 393.4 23 392.7 22.6 392.3C22 391.8 21.2 391.5 20 391.5C18.9 391.5 18.1 391.7 17.6 392.1C17.1 392.5 16.7 393.1 16.5 394.1L14.3 393.8C14.5 392.9 14.8 392.1 15.3 391.5C15.8 390.9 16.4 390.5 17.3 390.2C18.2 389.9 19.2 389.7 20.3 389.7C21.4 389.7 22.4 389.8 23.1 390.1C23.8 390.4 24.3 390.7 24.7 391.1C25 391.5 25.3 392 25.4 392.6C25.5 393 25.5 393.7 25.5 394.7V397.7C25.5 399.8 25.5 401.1 25.6 401.7C25.7 402.3 25.9 402.8 26.2 403.3H24C23.7 403 23.6 402.5 23.5 401.8ZM23.3 396.8C22.5 397.1 21.2 397.4 19.6 397.7C18.7 397.8 18 398 17.6 398.2C17.2 398.4 16.9 398.6 16.7 398.9C16.5 399.2 16.4 399.6 16.4 400C16.4 400.6 16.6 401.1 17.1 401.5C17.6 401.9 18.2 402.1 19.1 402.1C20 402.1 20.7 401.9 21.4 401.5C22.1 401.1 22.6 400.6 22.9 399.9C23.1 399.4 23.3 398.6 23.3 397.6V396.8Z" fill="#002352"/>
<path d="M28.9 403.5H26.8V385H29.1V391.6C30.1 390.4 31.3 389.8 32.8 389.8C33.6 389.8 34.4 390 35.1 390.3C35.8 390.6 36.4 391.1 36.9 391.7C37.4 392.3 37.7 393 38 393.9C38.3 394.7 38.4 395.7 38.4 396.6C38.4 398.9 37.8 400.7 36.7 401.9C35.6 403.1 34.2 403.8 32.6 403.8C31 403.8 29.8 403.1 28.9 401.8V403.5ZM28.9 396.7C28.9 398.3 29.1 399.5 29.6 400.2C30.3 401.4 31.3 402 32.5 402C33.5 402 34.3 401.6 35.1 400.7C35.8 399.8 36.2 398.6 36.2 396.9C36.2 395.2 35.9 393.9 35.2 393C34.5 392.2 33.7 391.8 32.7 391.8C31.7 391.8 30.9 392.2 30.1 393.1C29.3 393.8 28.9 395.1 28.9 396.7Z" fill="#002352"/>
<path d="M40.6 396.8C40.6 394.3 41.3 392.5 42.7 391.3C43.9 390.3 45.3 389.8 46.9 389.8C48.7 389.8 50.2 390.4 51.4 391.6C52.6 392.8 53.2 394.5 53.2 396.6C53.2 398.3 52.9 399.7 52.4 400.7C51.9 401.7 51.1 402.5 50.1 403C49.1 403.5 48 403.8 46.9 403.8C45 403.8 43.5 403.2 42.4 402C41.2 400.8 40.6 399 40.6 396.8ZM42.9 396.8C42.9 398.5 43.3 399.8 44 400.6C44.7 401.5 45.7 401.9 46.8 401.9C47.9 401.9 48.9 401.5 49.6 400.6C50.3 399.7 50.7 398.4 50.7 396.7C50.7 395 50.3 393.8 49.6 392.9C48.8 392 47.9 391.6 46.8 391.6C45.7 391.6 44.7 392 44 392.9C43.3 393.8 42.9 395.1 42.9 396.8Z" fill="#002352"/>
<path d="M55.3 403.5V390.1H57.3V392.1C57.8 391.2 58.3 390.5 58.7 390.2C59.1 389.9 59.6 389.7 60.2 389.7C61 389.7 61.7 389.9 62.5 390.4L61.7 392.5C61.1 392.2 60.6 392 60 392C59.5 392 59.1 392.1 58.7 392.4C58.3 392.7 58 393.1 57.9 393.6C57.6 394.4 57.5 395.3 57.5 396.2V403.2H55.3V403.5Z" fill="#002352"/>
<path d="M72.2 401.8C71.4 402.5 70.6 403 69.8 403.3C69 403.6 68.2 403.7 67.3 403.7C65.8 403.7 64.7 403.3 63.9 402.6C63.1 401.9 62.7 401 62.7 399.8C62.7 399.1 62.8 398.5 63.1 398C63.4 397.5 63.8 397 64.3 396.7C64.8 396.4 65.3 396.1 65.9 396C66.3 395.9 67 395.8 67.9 395.7C69.7 395.5 71.1 395.2 71.9 394.9C71.9 394.6 71.9 394.4 71.9 394.3C71.9 393.4 71.7 392.7 71.3 392.3C70.7 391.8 69.9 391.5 68.7 391.5C67.6 391.5 66.8 391.7 66.3 392.1C65.8 392.5 65.4 393.1 65.2 394.1L63 393.8C63.2 392.9 63.5 392.1 64 391.5C64.5 390.9 65.1 390.5 66 390.2C66.9 389.9 67.9 389.7 69 389.7C70.1 389.7 71.1 389.8 71.8 390.1C72.5 390.4 73 390.7 73.4 391.1C73.7 391.5 74 392 74.1 392.6C74.2 393 74.2 393.7 74.2 394.7V397.7C74.2 399.8 74.2 401.1 74.3 401.7C74.4 402.3 74.6 402.8 74.9 403.3H72.5C72.5 403 72.3 402.5 72.2 401.8ZM72.1 396.8C71.3 397.1 70 397.4 68.4 397.7C67.5 397.8 66.8 398 66.4 398.2C66 398.4 65.7 398.6 65.5 398.9C65.3 399.2 65.2 399.6 65.2 400C65.2 400.6 65.4 401.1 65.9 401.5C66.4 401.9 67 402.1 67.9 402.1C68.8 402.1 69.5 401.9 70.2 401.5C70.9 401.1 71.4 400.6 71.7 399.9C71.9 399.4 72.1 398.6 72.1 397.6V396.8Z" fill="#002352"/>
<path d="M80.4 401.4L80.7 403.4C80.1 403.5 79.5 403.6 79 403.6C78.2 403.6 77.5 403.5 77.1 403.2C76.6 402.9 76.3 402.6 76.1 402.2C75.9 401.8 75.8 400.9 75.8 399.5V391.8H74.1V390H75.8V386.7L78.1 385.3V390H80.4V391.8H78.1V399.6C78.1 400.2 78.1 400.7 78.2 400.8C78.3 401 78.4 401.1 78.6 401.2C78.8 401.3 79 401.4 79.4 401.4C79.7 401.5 80 401.5 80.4 401.4Z" fill="#002352"/>
<path d="M82.6 396.8C82.6 394.3 83.3 392.5 84.7 391.3C85.9 390.3 87.3 389.8 88.9 389.8C90.7 389.8 92.2 390.4 93.4 391.6C94.6 392.8 95.2 394.5 95.2 396.6C95.2 398.3 94.9 399.7 94.4 400.7C93.9 401.7 93.1 402.5 92.1 403C91.1 403.5 90 403.8 88.9 403.8C87 403.8 85.5 403.2 84.4 402C83.2 400.8 82.6 399 82.6 396.8ZM84.9 396.8C84.9 398.5 85.3 399.8 86 400.6C86.7 401.5 87.7 401.9 88.8 401.9C89.9 401.9 90.9 401.5 91.6 400.6C92.3 399.7 92.7 398.4 92.7 396.7C92.7 395 92.3 393.8 91.6 392.9C90.8 392 89.9 391.6 88.8 391.6C87.7 391.6 86.7 392 86 392.9C85.3 393.8 84.9 395.1 84.9 396.8Z" fill="#002352"/>
<path d="M97.3 403.5V390.1H99.3V392.1C99.8 391.2 100.3 390.5 100.7 390.2C101.1 389.9 101.6 389.7 102.2 389.7C103 389.7 103.7 389.9 104.5 390.4L103.7 392.5C103.1 392.2 102.6 392 102 392C101.5 392 101.1 392.1 100.7 392.4C100.3 392.7 100 393.1 99.9 393.6C99.6 394.4 99.5 395.3 99.5 396.2V403.2H97.3V403.5Z" fill="#002352"/>
<path d="M105.5 387.6V385H107.8V387.6H105.5ZM105.5 403.5V390.1H107.8V403.5H105.5Z" fill="#002352"/>
<path d="M110.4 396.8C110.4 394.3 111.1 392.5 112.5 391.3C113.7 390.3 115.1 389.8 116.7 389.8C118.5 389.8 120 390.4 121.2 391.6C122.4 392.8 123 394.5 123 396.6C123 398.3 122.7 399.7 122.2 400.7C121.7 401.7 120.9 402.5 119.9 403C118.9 403.5 117.8 403.8 116.7 403.8C114.8 403.8 113.3 403.2 112.2 402C111 400.8 110.4 399 110.4 396.8ZM112.7 396.8C112.7 398.5 113.1 399.8 113.8 400.6C114.5 401.5 115.5 401.9 116.6 401.9C117.7 401.9 118.7 401.5 119.4 400.6C120.1 399.7 120.5 398.4 120.5 396.7C120.5 395 120.1 393.8 119.4 392.9C118.6 392 117.7 391.6 116.6 391.6C115.5 391.6 114.5 392 113.8 392.9C113.1 393.8 112.7 395.1 112.7 396.8Z" fill="#002352"/>
<path d="M139.6 403.5V401.8C138.8 403.1 137.5 403.8 135.9 403.8C134.8 403.8 133.9 403.5 133 402.9C132.1 402.3 131.4 401.5 130.9 400.4C130.4 399.3 130.2 398.1 130.2 396.8C130.2 395.5 130.4 394.3 130.9 393.2C131.3 392.1 132 391.3 132.9 390.7C133.8 390.1 134.8 389.8 135.9 389.8C136.7 389.8 137.4 390 138.1 390.3C138.7 390.6 139.2 391.1 139.6 391.6V385H141.9V403.5H139.6ZM132.4 396.8C132.4 398.5 132.8 399.8 133.5 400.6C134.2 401.4 135.1 401.9 136.1 401.9C137.1 401.9 137.9 401.5 138.6 400.7C139.3 399.9 139.6 398.7 139.6 397C139.6 395.2 139.2 393.8 138.5 393C137.8 392.2 136.9 391.7 135.9 391.7C134.9 391.7 134.1 392.1 133.4 392.9C132.7 393.7 132.4 395 132.4 396.8Z" fill="#002352"/>
<path d="M154.3 399.2L156.6 399.5C156.2 400.9 155.5 401.9 154.5 402.7C153.5 403.5 152.2 403.8 150.7 403.8C148.7 403.8 147.2 403.2 146 402C144.9 400.8 144.3 399.1 144.3 396.9C144.3 394.6 144.9 392.9 146 391.7C147.2 390.5 148.7 389.8 150.5 389.8C152.3 389.8 153.7 390.4 154.9 391.6C156 392.8 156.6 394.5 156.6 396.7C156.6 396.8 156.6 397 156.6 397.3H146.6C146.7 398.8 147.1 399.9 147.8 400.7C148.5 401.5 149.5 401.9 150.6 401.9C151.4 401.9 152.1 401.7 152.7 401.2C153.5 400.8 154 400.1 154.3 399.2ZM146.9 395.5H154.4C154.3 394.4 154 393.5 153.5 393C152.8 392.1 151.8 391.7 150.7 391.7C149.7 391.7 148.8 392 148.1 392.7C147.3 393.4 146.9 394.3 146.9 395.5Z" fill="#002352"/>
<path d="M164.3 403.5V385H166.7V403.5H164.3Z" fill="#002352"/>
<path d="M169.4 403.5V390.1H171.4V392C172.4 390.5 173.8 389.8 175.7 389.8C176.5 389.8 177.2 389.9 177.9 390.2C178.6 390.5 179.1 390.9 179.4 391.3C179.7 391.7 180 392.3 180.1 393C180.2 393.4 180.2 394.2 180.2 395.2V403.4H178V395.3C178 394.4 177.9 393.7 177.7 393.2C177.5 392.7 177.2 392.4 176.8 392.1C176.4 391.8 175.8 391.7 175.2 391.7C174.2 391.7 173.4 392 172.7 392.6C172 393.2 171.6 394.4 171.6 396.1V403.4H169.4V403.5Z" fill="#002352"/>
<path d="M183.3 403.5V390.1H185.3V392C186.3 390.5 187.7 389.8 189.6 389.8C190.4 389.8 191.1 389.9 191.8 390.2C192.5 390.5 193 390.9 193.3 391.3C193.6 391.7 193.9 392.3 194 393C194.1 393.4 194.1 394.2 194.1 395.2V403.4H191.8V395.3C191.8 394.4 191.7 393.7 191.5 393.2C191.3 392.7 191 392.4 190.6 392.1C190.2 391.8 189.6 391.7 189 391.7C188 391.7 187.2 392 186.5 392.6C185.8 393.2 185.4 394.4 185.4 396.1V403.4H183.3V403.5Z" fill="#002352"/>
<path d="M196.5 396.8C196.5 394.3 197.2 392.5 198.6 391.3C199.8 390.3 201.2 389.8 202.8 389.8C204.6 389.8 206.1 390.4 207.3 391.6C208.5 392.8 209.1 394.5 209.1 396.6C209.1 398.3 208.8 399.7 208.3 400.7C207.8 401.7 207 402.5 206 403C205 403.5 203.9 403.8 202.8 403.8C200.9 403.8 199.4 403.2 198.3 402C197 400.8 196.5 399 196.5 396.8ZM198.8 396.8C198.8 398.5 199.2 399.8 199.9 400.6C200.6 401.5 201.6 401.9 202.7 401.9C203.8 401.9 204.8 401.5 205.5 400.6C206.2 399.7 206.6 398.4 206.6 396.7C206.6 395 206.2 393.8 205.5 392.9C204.7 392 203.8 391.6 202.7 391.6C201.6 391.6 200.6 392 199.9 392.9C199.2 393.8 198.8 395.1 198.8 396.8Z" fill="#002352"/>
<path d="M214.6 403.5L209.5 390.1H211.9L214.8 398.1C215.1 399 215.4 399.9 215.7 400.8C215.9 400.1 216.2 399.2 216.5 398.3L219.5 390.1H221.8L216.7 403.5H214.6Z" fill="#002352"/>
<path d="M231.8 401.8C231 402.5 230.2 403 229.4 403.3C228.6 403.6 227.8 403.7 226.9 403.7C225.4 403.7 224.3 403.3 223.5 402.6C222.7 401.9 222.3 401 222.3 399.8C222.3 399.1 222.4 398.5 222.7 398C223 397.5 223.4 397 223.9 396.7C224.4 396.4 224.9 396.1 225.5 396C225.9 395.9 226.6 395.8 227.5 395.7C229.3 395.5 230.7 395.2 231.5 394.9C231.5 394.6 231.5 394.4 231.5 394.3C231.5 393.4 231.3 392.7 230.9 392.3C230.3 391.8 229.5 391.5 228.3 391.5C227.2 391.5 226.4 391.7 225.9 392.1C225.4 392.5 225 393.1 224.8 394.1L222.6 393.8C222.8 392.9 223.1 392.1 223.6 391.5C224.1 390.9 224.7 390.5 225.6 390.2C226.5 389.9 227.5 389.7 228.6 389.7C229.7 389.7 230.7 389.8 231.4 390.1C232.1 390.4 232.6 390.7 233 391.1C233.3 391.5 233.6 392 233.7 392.6C233.8 393 233.8 393.7 233.8 394.7V397.7C233.8 399.8 233.8 401.1 233.9 401.7C234 402.3 234.2 402.8 234.5 403.3H232.1C232 403 231.8 402.5 231.8 401.8ZM231.6 396.8C230.8 397.1 229.5 397.4 227.9 397.7C227 397.8 226.3 398 225.9 398.2C225.5 398.4 225.2 398.6 225 398.9C224.8 399.2 224.7 399.6 224.7 400C224.7 400.6 224.9 401.1 225.4 401.5C225.9 401.9 226.5 402.1 227.4 402.1C228.3 402.1 229 401.9 229.7 401.5C230.4 401.1 230.9 400.6 231.2 399.9C231.4 399.4 231.6 398.6 231.6 397.6V396.8Z" fill="#002352"/>
<path d="M243.9 398.6L246.1 398.9C245.9 400.4 245.2 401.6 244.2 402.5C243.2 403.4 242 403.8 240.5 403.8C238.7 403.8 237.2 403.2 236.1 402C235 400.8 234.4 399.1 234.4 396.9C234.4 395.5 234.6 394.2 235.1 393.1C235.6 392 236.3 391.2 237.3 390.7C238.3 390.2 239.3 389.9 240.5 389.9C242 389.9 243.1 390.3 244.1 391C245 391.7 245.6 392.8 245.9 394.1L243.7 394.4C243.5 393.5 243.1 392.8 242.6 392.4C242.1 391.9 241.4 391.7 240.7 391.7C239.6 391.7 238.6 392.1 237.9 392.9C237.2 393.7 236.8 395 236.8 396.8C236.8 398.6 237.1 399.9 237.8 400.7C238.5 401.5 239.4 401.9 240.5 401.9C241.4 401.9 242.1 401.6 242.7 401.1C243.3 400.5 243.7 399.7 243.9 398.6Z" fill="#002352"/>
<path d="M246.3 387.6V385H248.6V387.6H246.3ZM246.3 403.5V390.1H248.6V403.5H246.3Z" fill="#002352"/>
<path d="M251.2 396.8C251.2 394.3 251.9 392.5 253.3 391.3C254.5 390.3 255.9 389.8 257.5 389.8C259.3 389.8 260.8 390.4 262 391.6C263.2 392.8 263.8 394.5 263.8 396.6C263.8 398.3 263.5 399.7 263 400.7C262.5 401.7 261.7 402.5 260.7 403C259.7 403.5 258.6 403.8 257.5 403.8C255.6 403.8 254.1 403.2 253 402C251.8 400.8 251.2 399 251.2 396.8ZM253.5 396.8C253.5 398.5 253.9 399.8 254.6 400.6C255.3 401.5 256.3 401.9 257.4 401.9C258.5 401.9 259.5 401.5 260.2 400.6C260.9 399.7 261.3 398.4 261.3 396.7C261.3 395 260.9 393.8 260.2 392.9C259.4 392 258.5 391.6 257.4 391.6C256.3 391.6 255.3 392 254.6 392.9C253.9 393.8 253.5 395.1 253.5 396.8ZM256.2 388.4L257.9 384.9H260.9L258.1 388.4H256.2Z" fill="#002352"/>
<path d="M265.9 403.5V390.1H267.9V392C268.9 390.5 270.3 389.8 272.2 389.8C273 389.8 273.7 389.9 274.4 390.2C275.1 390.5 275.6 390.9 275.9 391.3C276.2 391.7 276.5 392.3 276.6 393C276.7 393.4 276.7 394.2 276.7 395.2V403.4H274.4V395.3C274.4 394.4 274.3 393.7 274.1 393.2C273.9 392.7 273.6 392.4 273.2 392.1C272.8 391.8 272.2 391.7 271.6 391.7C270.6 391.7 269.8 392 269.1 392.6C268.4 393.2 268 394.4 268 396.1V403.4H265.9V403.5Z" fill="#002352"/>
</svg>
